<mxfile host="65bd71144e">
    <diagram name="PÃ¡gina-1" id="hyICvNXRdC_2v3J1_6AB">
        <mxGraphModel dx="2512" dy="818" grid="0" gridSize="10" guides="1" tooltips="1" connect="1" arrows="1" fold="1" page="0" pageScale="1" pageWidth="827" pageHeight="1169" background="#080808" math="0" shadow="0">
            <root>
                <mxCell id="0"/>
                <mxCell id="1" parent="0"/>
                <mxCell id="Me6fwh5fdMOHNFARENvE-5" value="&amp;lt;&amp;lt;interface&amp;gt;&amp;gt;&lt;br style=&quot;border-color: var(--border-color);&quot;&gt;NavegadorInternet" style="swimlane;fontStyle=0;childLayout=stackLayout;horizontal=1;startSize=30;horizontalStack=0;resizeParent=1;resizeParentMax=0;resizeLast=0;collapsible=1;marginBottom=0;whiteSpace=wrap;html=1;rounded=1;labelBackgroundColor=none;fillColor=#56517E;strokeColor=#EEEEEE;fontColor=#FFFFFF;" parent="1" vertex="1">
                    <mxGeometry x="560" y="210" width="158" height="120" as="geometry"/>
                </mxCell>
                <mxCell id="Me6fwh5fdMOHNFARENvE-6" value="+exibirPagina(): void" style="text;strokeColor=none;fillColor=none;align=left;verticalAlign=middle;spacingLeft=4;spacingRight=4;overflow=hidden;points=[[0,0.5],[1,0.5]];portConstraint=eastwest;rotatable=0;whiteSpace=wrap;html=1;rounded=1;labelBackgroundColor=none;fontColor=#FFFFFF;" parent="Me6fwh5fdMOHNFARENvE-5" vertex="1">
                    <mxGeometry y="30" width="158" height="30" as="geometry"/>
                </mxCell>
                <mxCell id="Me6fwh5fdMOHNFARENvE-7" value="+adicionarMusica(): void" style="text;strokeColor=none;fillColor=none;align=left;verticalAlign=middle;spacingLeft=4;spacingRight=4;overflow=hidden;points=[[0,0.5],[1,0.5]];portConstraint=eastwest;rotatable=0;whiteSpace=wrap;html=1;rounded=1;labelBackgroundColor=none;fontColor=#FFFFFF;" parent="Me6fwh5fdMOHNFARENvE-5" vertex="1">
                    <mxGeometry y="60" width="158" height="30" as="geometry"/>
                </mxCell>
                <mxCell id="Me6fwh5fdMOHNFARENvE-8" value="+atualizarPagina(): void" style="text;strokeColor=none;fillColor=none;align=left;verticalAlign=middle;spacingLeft=4;spacingRight=4;overflow=hidden;points=[[0,0.5],[1,0.5]];portConstraint=eastwest;rotatable=0;whiteSpace=wrap;html=1;rounded=1;labelBackgroundColor=none;fontColor=#FFFFFF;" parent="Me6fwh5fdMOHNFARENvE-5" vertex="1">
                    <mxGeometry y="90" width="158" height="30" as="geometry"/>
                </mxCell>
                <mxCell id="Me6fwh5fdMOHNFARENvE-13" value="&amp;lt;&amp;lt;interface&amp;gt;&amp;gt;&lt;br style=&quot;border-color: var(--border-color);&quot;&gt;AparelhoTelefonico" style="swimlane;fontStyle=0;childLayout=stackLayout;horizontal=1;startSize=30;horizontalStack=0;resizeParent=1;resizeParentMax=0;resizeLast=0;collapsible=1;marginBottom=0;whiteSpace=wrap;html=1;rounded=1;labelBackgroundColor=none;fillColor=#56517E;strokeColor=#EEEEEE;fontColor=#FFFFFF;" parent="1" vertex="1">
                    <mxGeometry x="330" y="210" width="167" height="120" as="geometry"/>
                </mxCell>
                <mxCell id="Me6fwh5fdMOHNFARENvE-14" value="+ligar(): void" style="text;strokeColor=none;fillColor=none;align=left;verticalAlign=middle;spacingLeft=4;spacingRight=4;overflow=hidden;points=[[0,0.5],[1,0.5]];portConstraint=eastwest;rotatable=0;whiteSpace=wrap;html=1;rounded=1;labelBackgroundColor=none;fontColor=#FFFFFF;" parent="Me6fwh5fdMOHNFARENvE-13" vertex="1">
                    <mxGeometry y="30" width="167" height="30" as="geometry"/>
                </mxCell>
                <mxCell id="Me6fwh5fdMOHNFARENvE-15" value="+atender(): void" style="text;strokeColor=none;fillColor=none;align=left;verticalAlign=middle;spacingLeft=4;spacingRight=4;overflow=hidden;points=[[0,0.5],[1,0.5]];portConstraint=eastwest;rotatable=0;whiteSpace=wrap;html=1;rounded=1;labelBackgroundColor=none;fontColor=#FFFFFF;" parent="Me6fwh5fdMOHNFARENvE-13" vertex="1">
                    <mxGeometry y="60" width="167" height="30" as="geometry"/>
                </mxCell>
                <mxCell id="Me6fwh5fdMOHNFARENvE-16" value="+iniciarCorreioVoz(): void" style="text;strokeColor=none;fillColor=none;align=left;verticalAlign=middle;spacingLeft=4;spacingRight=4;overflow=hidden;points=[[0,0.5],[1,0.5]];portConstraint=eastwest;rotatable=0;whiteSpace=wrap;html=1;rounded=1;labelBackgroundColor=none;fontColor=#FFFFFF;" parent="Me6fwh5fdMOHNFARENvE-13" vertex="1">
                    <mxGeometry y="90" width="167" height="30" as="geometry"/>
                </mxCell>
                <mxCell id="Me6fwh5fdMOHNFARENvE-17" value="&amp;lt;&amp;lt;interface&amp;gt;&amp;gt;&lt;br style=&quot;border-color: var(--border-color);&quot;&gt;ReprodutorMusical" style="swimlane;fontStyle=0;childLayout=stackLayout;horizontal=1;startSize=30;horizontalStack=0;resizeParent=1;resizeParentMax=0;resizeLast=0;collapsible=1;marginBottom=0;whiteSpace=wrap;html=1;rounded=1;labelBackgroundColor=none;fillColor=#56517E;strokeColor=#EEEEEE;fontColor=#FFFFFF;" parent="1" vertex="1">
                    <mxGeometry x="110" y="210" width="150" height="120" as="geometry"/>
                </mxCell>
                <mxCell id="Me6fwh5fdMOHNFARENvE-18" value="+tocar(): void" style="text;strokeColor=none;fillColor=none;align=left;verticalAlign=middle;spacingLeft=4;spacingRight=4;overflow=hidden;points=[[0,0.5],[1,0.5]];portConstraint=eastwest;rotatable=0;whiteSpace=wrap;html=1;rounded=1;labelBackgroundColor=none;fontColor=#FFFFFF;" parent="Me6fwh5fdMOHNFARENvE-17" vertex="1">
                    <mxGeometry y="30" width="150" height="30" as="geometry"/>
                </mxCell>
                <mxCell id="Me6fwh5fdMOHNFARENvE-19" value="+pausar(): void" style="text;strokeColor=none;fillColor=none;align=left;verticalAlign=middle;spacingLeft=4;spacingRight=4;overflow=hidden;points=[[0,0.5],[1,0.5]];portConstraint=eastwest;rotatable=0;whiteSpace=wrap;html=1;rounded=1;labelBackgroundColor=none;fontColor=#FFFFFF;" parent="Me6fwh5fdMOHNFARENvE-17" vertex="1">
                    <mxGeometry y="60" width="150" height="30" as="geometry"/>
                </mxCell>
                <mxCell id="Me6fwh5fdMOHNFARENvE-20" value="+selecionarMusica(): void" style="text;strokeColor=none;fillColor=none;align=left;verticalAlign=middle;spacingLeft=4;spacingRight=4;overflow=hidden;points=[[0,0.5],[1,0.5]];portConstraint=eastwest;rotatable=0;whiteSpace=wrap;html=1;rounded=1;labelBackgroundColor=none;fontColor=#FFFFFF;" parent="Me6fwh5fdMOHNFARENvE-17" vertex="1">
                    <mxGeometry y="90" width="150" height="30" as="geometry"/>
                </mxCell>
                <mxCell id="2" style="edgeStyle=none;html=1;" edge="1" parent="1" source="Me6fwh5fdMOHNFARENvE-1">
                    <mxGeometry relative="1" as="geometry">
                        <mxPoint x="216" y="330" as="targetPoint"/>
                    </mxGeometry>
                </mxCell>
                <mxCell id="3" style="edgeStyle=none;html=1;entryX=0.515;entryY=1.2;entryDx=0;entryDy=0;entryPerimeter=0;" edge="1" parent="1" source="Me6fwh5fdMOHNFARENvE-1" target="Me6fwh5fdMOHNFARENvE-16">
                    <mxGeometry relative="1" as="geometry"/>
                </mxCell>
                <mxCell id="4" style="edgeStyle=none;html=1;entryX=0.418;entryY=1.133;entryDx=0;entryDy=0;entryPerimeter=0;" edge="1" parent="1" source="Me6fwh5fdMOHNFARENvE-1" target="Me6fwh5fdMOHNFARENvE-8">
                    <mxGeometry relative="1" as="geometry"/>
                </mxCell>
                <mxCell id="Me6fwh5fdMOHNFARENvE-1" value="Iphone" style="swimlane;fontStyle=0;childLayout=stackLayout;horizontal=1;startSize=30;horizontalStack=0;resizeParent=1;resizeParentMax=0;resizeLast=0;collapsible=1;marginBottom=0;whiteSpace=wrap;html=1;rounded=1;labelBackgroundColor=none;fillColor=#56517E;strokeColor=#EEEEEE;fontColor=#FFFFFF;" parent="1" vertex="1">
                    <mxGeometry x="346" y="432" width="140" height="120" as="geometry"/>
                </mxCell>
                <mxCell id="Me6fwh5fdMOHNFARENvE-2" value="Navegador" style="text;strokeColor=none;fillColor=none;align=left;verticalAlign=middle;spacingLeft=4;spacingRight=4;overflow=hidden;points=[[0,0.5],[1,0.5]];portConstraint=eastwest;rotatable=0;whiteSpace=wrap;html=1;rounded=1;labelBackgroundColor=none;fontColor=#FFFFFF;" parent="Me6fwh5fdMOHNFARENvE-1" vertex="1">
                    <mxGeometry y="30" width="140" height="30" as="geometry"/>
                </mxCell>
                <mxCell id="Me6fwh5fdMOHNFARENvE-3" value="ReprodutorMusical" style="text;strokeColor=none;fillColor=none;align=left;verticalAlign=middle;spacingLeft=4;spacingRight=4;overflow=hidden;points=[[0,0.5],[1,0.5]];portConstraint=eastwest;rotatable=0;whiteSpace=wrap;html=1;rounded=1;labelBackgroundColor=none;fontColor=#FFFFFF;" parent="Me6fwh5fdMOHNFARENvE-1" vertex="1">
                    <mxGeometry y="60" width="140" height="30" as="geometry"/>
                </mxCell>
                <mxCell id="Me6fwh5fdMOHNFARENvE-4" value="AparelhoTelefonico" style="text;strokeColor=none;fillColor=none;align=left;verticalAlign=middle;spacingLeft=4;spacingRight=4;overflow=hidden;points=[[0,0.5],[1,0.5]];portConstraint=eastwest;rotatable=0;whiteSpace=wrap;html=1;rounded=1;labelBackgroundColor=none;fontColor=#FFFFFF;" parent="Me6fwh5fdMOHNFARENvE-1" vertex="1">
                    <mxGeometry y="90" width="140" height="30" as="geometry"/>
                </mxCell>
            </root>
        </mxGraphModel>
    </diagram>
</mxfile>